<svg width="363" height="200" viewBox="0 0 363 200" fill="none" xmlns="http://www.w3.org/2000/svg">
<g id="Group 7">
<g id="Group 4">
<circle id="Oval" cx="105" cy="100" r="100" fill="#2C6269"/>
<path id="Combined Shape" fill-rule="evenodd" clip-rule="evenodd" d="M263 200C318.228 200 363 155.228 363 100C363 44.7715 318.228 0 263 0C207.772 0 163 44.7715 163 100C163 155.228 207.772 200 263 200ZM263 133C281.225 133 296 118.225 296 100C296 81.7746 281.225 67 263 67C244.775 67 230 81.7746 230 100C230 118.225 244.775 133 263 133Z" fill="#012F34"/>
<rect id="Rectangle" x="363" y="43" width="43" height="43" transform="rotate(180 363 43)" fill="#79C8C7"/>
<path id="Combined Shape Copy" fill-rule="evenodd" clip-rule="evenodd" d="M238.513 200C293.742 200 338.513 155.228 338.513 100C338.513 44.7715 293.742 0 238.513 0C183.285 0 138.513 44.7715 138.513 100C138.513 155.228 183.285 200 238.513 200ZM238.513 133C256.739 133 271.513 118.225 271.513 100C271.513 81.7746 256.739 67 238.513 67C220.288 67 205.513 81.7746 205.513 100C205.513 118.225 220.288 133 238.513 133Z" fill="#F67E7E"/>
</g>
<path id="Combined Shape_2" fill-rule="evenodd" clip-rule="evenodd" d="M100 0H0V4H100V0ZM100 8H0V12H100V8ZM0 16H100V20H0V16ZM100 24H0V28H100V24ZM0 32H100V36H0V32ZM100 40H0V44H100V40Z" fill="#79C8C7"/>
</g>
</svg>
